<?xml version="1.0" encoding="utf-8"?>
<!-- Generator: Adobe Illustrator 23.0.6, SVG Export Plug-In . SVG Version: 6.00 Build 0)  -->
<svg version="1.1" id="Capa_1" xmlns="http://www.w3.org/2000/svg" xmlns:xlink="http://www.w3.org/1999/xlink" x="0px" y="0px"
	 viewBox="0 0 2549.2 512" style="enable-background:new 0 0 2549.2 512;" xml:space="preserve">
<style type="text/css">
	.st0{fill:#D1203C;}
	.st1{fill:none;}
	.st2{font-family:'Avenir-Black';}
	.st3{font-size:481px;}
</style>
<path class="st0" d="M1110.9,187.3h-20.1c-37.7,0-68.4,24.8-68.4,55.2V298c0,4.3,5.6,9.2,13.6,9.6c9.2,0.4,16.5,8,16.5,17.3v33.2
	c0.5,0.3,1.5,0.7,2.8,0.7h91c1.3,0,2.3-0.4,2.8-0.7v-33.2c0-9.3,7.3-16.9,16.5-17.3c8-0.3,13.6-5.3,13.6-9.6v-55.5
	C1179.3,212.1,1148.6,187.3,1110.9,187.3L1110.9,187.3z M1064,276c-9.5,0-17.3-7.8-17.3-17.3s7.8-17.3,17.3-17.3s17.3,7.8,17.3,17.3
	S1073.5,276,1064,276z M1137.7,276c-9.5,0-17.3-7.8-17.3-17.3s7.8-17.3,17.3-17.3s17.3,7.8,17.3,17.3
	C1154.9,268.2,1147.2,276,1137.7,276z"/>
<path class="st0" d="M1293.6,337.9c13-22.8,17.2-62.3-0.8-90.6l-83.9-131.9c-20.5-34.8-59.9-54.7-108.1-54.7
	c-46.6,0-85.9,19.8-107.9,54.4l-84.1,132.3c-18,28.3-13.8,67.8-0.8,90.6c5.2,9.1,9.5,15,13.8,19.4c-10.8,14.7-16.7,32.4-16.7,51
	v86.3c0,9.5,7.7,17.3,17.3,17.3h356.9l0,0c4.6,0,9-1.8,12.2-5.1c3.2-3.2,5.1-7.6,5.1-12.2v-86.3c0-18.5-5.9-36.3-16.7-51
	C1284.1,353,1288.4,347.1,1293.6,337.9L1293.6,337.9z M1213.9,298.1c0,18.3-12.4,34.1-30.2,40.8v20.3c0,18.9-16.8,34.3-37.4,34.3
	h-91c-20.6,0-37.4-15.4-37.4-34.3v-20.3c-17.8-6.6-30.2-22.4-30.2-40.8v-55.5c0-49.5,46.2-89.8,103-89.8h20.1
	c56.8,0,103,40.3,103,89.8L1213.9,298.1L1213.9,298.1z"/>
<path d="M1378.2,60.8h-30c-8.3,0-15,5.9-15,13.2v59.3h60V73.9C1393.2,60.8,1393.2,60.8,1378.2,60.8z"/>
<path d="M1333.2,496.8c0,8.4,6.7,15.2,15,15.2h30c8.3,0,15-6.8,15-15.2V147.4h-60V496.8z"/>
<path d="M1673.6,121.1c0-33.3-41.3-60.4-92-60.4H1416v72.4h239.2C1665.4,133.2,1673.6,127.8,1673.6,121.1z"/>
<rect x="1639.8" y="118.8" width="33.8" height="14.4"/>
<rect x="1402.9" y="147.4" class="st1" width="1146.3" height="366.1"/>
<text transform="matrix(1 0 0 1 1402.8682 511.055)" class="st2 st3">dead</text>
<rect x="1351.3" y="60.8" width="41.9" height="22.9"/>
<rect x="1333.2" y="496.8" width="60" height="15.2"/>
<image style="overflow:visible;" width="738" height="472" xlink:href="../../Downloads/logo-pink-grey.png"  transform="matrix(1.0819 0 0 1.0819 17.497 0)">
</image>
</svg>
